<mxfile host="app.diagrams.net" modified="2023-10-06T01:05:13.377Z" agent="Mozilla/5.0 (Macintosh; Intel Mac OS X 10_15_7) AppleWebKit/605.1.15 (KHTML, like Gecko) Version/17.0 Safari/605.1.15" version="22.0.3" etag="VJjjCkqdxpqs-7n5bt-K" type="github">
  <diagram name="第 1 页" id="YBMvgMc-UyjiCW-wIhcz">
    <mxGraphModel>
      <root>
        <mxCell id="0" />
        <mxCell id="1" parent="0" />
      </root>
    </mxGraphModel>
  </diagram>
</mxfile>
